<?xml version="1.0" standalone="no"?>
<!DOCTYPE svg PUBLIC "-//W3C//DTD SVG 20010904//EN"
 "http://www.w3.org/TR/2001/REC-SVG-20010904/DTD/svg10.dtd">
<svg version="1.0" xmlns="http://www.w3.org/2000/svg"
 width="300.000000pt" height="300.000000pt" viewBox="0 0 300.000000 300.000000"
 preserveAspectRatio="xMidYMid meet">
<metadata>
Created by potrace 1.11, written by Peter Selinger 2001-2013
</metadata>
<g transform="translate(0.000000,300.000000) scale(0.100000,-0.100000)"
fill="#000000" stroke="none">
<path d="M0 1500 l0 -1500 1500 0 1500 0 0 1500 0 1500 -1500 0 -1500 0 0
-1500z m1002 1274 c131 -33 189 -73 374 -258 186 -186 216 -230 253 -366 38
-137 24 -316 -35 -432 l-26 -51 50 -49 49 -50 51 26 c116 59 295 73 432 35
136 -37 180 -67 366 -253 140 -140 177 -184 206 -241 115 -223 94 -485 -55
-680 -202 -264 -576 -330 -853 -150 -79 52 -330 306 -373 378 -62 105 -83 179
-88 307 -5 125 7 193 51 295 l24 52 -45 46 -46 45 -52 -24 c-102 -44 -170 -56
-295 -51 -128 5 -202 26 -307 88 -72 43 -326 294 -378 373 -180 277 -114 652
150 853 155 118 354 157 547 107z"/>
<path d="M714 2437 c-105 -51 -164 -137 -172 -253 -8 -124 9 -157 162 -312
151 -154 195 -182 299 -190 37 -2 67 -1 67 4 0 4 -45 53 -99 109 -106 107
-120 135 -108 211 17 101 134 162 230 120 18 -8 72 -55 122 -105 49 -50 93
-91 97 -91 14 0 8 106 -9 156 -13 40 -41 74 -147 182 -165 168 -192 185 -305
190 -75 3 -93 0 -137 -21z"/>
<path d="M1930 1312 c0 -4 41 -48 91 -97 50 -50 97 -104 105 -122 42 -96 -19
-213 -120 -230 -76 -12 -104 2 -211 108 -56 54 -105 99 -109 99 -5 0 -6 -30
-4 -67 8 -104 36 -148 190 -299 155 -153 188 -170 312 -162 117 8 204 68 254
176 21 47 24 64 20 136 -6 111 -24 139 -190 302 -108 106 -142 134 -182 147
-50 17 -156 23 -156 9z"/>
</g>
</svg>
